<svg width="86" height="19" viewBox="0 0 86 19" fill="none" xmlns="http://www.w3.org/2000/svg">
<path d="M27.612 14.126C26.9773 14.126 26.352 14.056 25.736 13.916C25.12 13.7667 24.6253 13.5753 24.252 13.342L25.05 11.522C25.3953 11.7367 25.806 11.9093 26.282 12.04C26.758 12.1613 27.2293 12.222 27.696 12.222C28.1253 12.222 28.4287 12.18 28.606 12.096C28.7927 12.0027 28.886 11.872 28.886 11.704C28.886 11.536 28.774 11.4193 28.55 11.354C28.3353 11.2793 27.99 11.2093 27.514 11.144C26.9073 11.0693 26.3893 10.9713 25.96 10.85C25.54 10.7287 25.176 10.5047 24.868 10.178C24.56 9.85133 24.406 9.394 24.406 8.806C24.406 8.32067 24.5507 7.89133 24.84 7.518C25.1293 7.13533 25.5493 6.83667 26.1 6.622C26.66 6.398 27.3273 6.286 28.102 6.286C28.6527 6.286 29.1987 6.342 29.74 6.454C30.2813 6.566 30.734 6.72467 31.098 6.93L30.3 8.736C29.628 8.36267 28.9 8.176 28.116 8.176C27.696 8.176 27.388 8.22733 27.192 8.33C26.996 8.42333 26.898 8.54933 26.898 8.708C26.898 8.88533 27.0053 9.01133 27.22 9.086C27.4347 9.15133 27.7893 9.22133 28.284 9.296C28.9093 9.38933 29.4273 9.49667 29.838 9.618C30.2487 9.73933 30.6033 9.96333 30.902 10.29C31.21 10.6073 31.364 11.0553 31.364 11.634C31.364 12.11 31.2193 12.5393 30.93 12.922C30.6407 13.2953 30.2113 13.5893 29.642 13.804C29.082 14.0187 28.4053 14.126 27.612 14.126ZM32.5103 6.412H35.1703V14H32.5103V6.412ZM33.8403 5.572C33.3549 5.572 32.9629 5.43667 32.6643 5.166C32.3656 4.89533 32.2163 4.55933 32.2163 4.158C32.2163 3.75667 32.3656 3.42067 32.6643 3.15C32.9629 2.87933 33.3549 2.744 33.8403 2.744C34.3256 2.744 34.7176 2.87467 35.0163 3.136C35.3149 3.388 35.4643 3.71467 35.4643 4.116C35.4643 4.536 35.3149 4.886 35.0163 5.166C34.7176 5.43667 34.3256 5.572 33.8403 5.572ZM42.1349 13.692C41.9109 13.832 41.6356 13.9393 41.3089 14.014C40.9916 14.0887 40.6509 14.126 40.2869 14.126C39.2976 14.126 38.5369 13.8833 38.0049 13.398C37.4729 12.9127 37.2069 12.1893 37.2069 11.228V8.68H36.1009V6.692H37.2069V4.718H39.8669V6.692H41.6029V8.68H39.8669V11.2C39.8669 11.4707 39.9369 11.6853 40.0769 11.844C40.2263 11.9933 40.4223 12.068 40.6649 12.068C40.9729 12.068 41.2436 11.9887 41.4769 11.83L42.1349 13.692ZM50.6979 10.22C50.6979 10.2387 50.6839 10.458 50.6559 10.878H45.1399C45.2519 11.27 45.4666 11.5733 45.7839 11.788C46.1106 11.9933 46.5166 12.096 47.0019 12.096C47.3659 12.096 47.6786 12.0447 47.9399 11.942C48.2106 11.8393 48.4812 11.6713 48.7519 11.438L50.1519 12.894C49.4146 13.7153 48.3366 14.126 46.9179 14.126C46.0312 14.126 45.2519 13.958 44.5799 13.622C43.9079 13.286 43.3852 12.8193 43.0119 12.222C42.6479 11.6247 42.4659 10.948 42.4659 10.192C42.4659 9.44533 42.6432 8.778 42.9979 8.19C43.3619 7.59267 43.8612 7.126 44.4959 6.79C45.1306 6.454 45.8446 6.286 46.6379 6.286C47.3939 6.286 48.0799 6.44467 48.6959 6.762C49.3119 7.07 49.7972 7.52267 50.1519 8.12C50.5159 8.708 50.6979 9.408 50.6979 10.22ZM46.6519 8.176C46.2412 8.176 45.8959 8.29267 45.6159 8.526C45.3452 8.75933 45.1726 9.07667 45.0979 9.478H48.2059C48.1312 9.07667 47.9539 8.75933 47.6739 8.526C47.4032 8.29267 47.0626 8.176 46.6519 8.176ZM54.4303 14.07C53.833 14.07 53.259 13.986 52.7083 13.818C52.167 13.6407 51.7423 13.4213 51.4343 13.16L51.8823 12.376C52.1903 12.6187 52.5776 12.8193 53.0443 12.978C53.511 13.1273 53.9963 13.202 54.5003 13.202C55.1723 13.202 55.667 13.0993 55.9843 12.894C56.311 12.6793 56.4743 12.3807 56.4743 11.998C56.4743 11.7273 56.3856 11.5173 56.2083 11.368C56.031 11.2093 55.807 11.0927 55.5363 11.018C55.2656 10.934 54.9063 10.8547 54.4583 10.78C53.861 10.668 53.3803 10.556 53.0163 10.444C52.6523 10.3227 52.3396 10.122 52.0783 9.842C51.8263 9.562 51.7003 9.17467 51.7003 8.68C51.7003 8.064 51.957 7.56 52.4703 7.168C52.9836 6.776 53.6976 6.58 54.6123 6.58C55.0883 6.58 55.5643 6.64533 56.0403 6.776C56.5163 6.89733 56.9083 7.06067 57.2163 7.266L56.7823 8.064C56.1756 7.644 55.4523 7.434 54.6123 7.434C53.9776 7.434 53.497 7.546 53.1703 7.77C52.853 7.994 52.6943 8.288 52.6943 8.652C52.6943 8.932 52.783 9.156 52.9603 9.324C53.147 9.492 53.3756 9.618 53.6463 9.702C53.917 9.77667 54.2903 9.856 54.7663 9.94C55.3543 10.052 55.8256 10.164 56.1803 10.276C56.535 10.388 56.8383 10.5793 57.0903 10.85C57.3423 11.1207 57.4683 11.494 57.4683 11.97C57.4683 12.614 57.1976 13.1273 56.6563 13.51C56.1243 13.8833 55.3823 14.07 54.4303 14.07ZM63.0579 6.58C63.9819 6.58 64.7146 6.85067 65.2559 7.392C65.8066 7.924 66.0819 8.70333 66.0819 9.73V14H65.0879V9.828C65.0879 9.06267 64.8966 8.47933 64.5139 8.078C64.1313 7.67667 63.5853 7.476 62.8759 7.476C62.0826 7.476 61.4526 7.714 60.9859 8.19C60.5286 8.65667 60.2999 9.30533 60.2999 10.136V14H59.3059V3.612H60.2999V7.924C60.5706 7.49467 60.9439 7.16333 61.4199 6.93C61.8959 6.69667 62.4419 6.58 63.0579 6.58ZM71.8179 14.07C71.1085 14.07 70.4692 13.9113 69.8999 13.594C69.3305 13.2673 68.8825 12.8193 68.5559 12.25C68.2292 11.6807 68.0659 11.0367 68.0659 10.318C68.0659 9.59933 68.2292 8.95533 68.5559 8.386C68.8825 7.81667 69.3305 7.37333 69.8999 7.056C70.4692 6.73867 71.1085 6.58 71.8179 6.58C72.5272 6.58 73.1665 6.73867 73.7359 7.056C74.3052 7.37333 74.7485 7.81667 75.0659 8.386C75.3925 8.95533 75.5559 9.59933 75.5559 10.318C75.5559 11.0367 75.3925 11.6807 75.0659 12.25C74.7485 12.8193 74.3052 13.2673 73.7359 13.594C73.1665 13.9113 72.5272 14.07 71.8179 14.07ZM71.8179 13.188C72.3405 13.188 72.8072 13.0713 73.2179 12.838C73.6379 12.5953 73.9645 12.2547 74.1979 11.816C74.4312 11.3773 74.5479 10.878 74.5479 10.318C74.5479 9.758 74.4312 9.25867 74.1979 8.82C73.9645 8.38133 73.6379 8.04533 73.2179 7.812C72.8072 7.56933 72.3405 7.448 71.8179 7.448C71.2952 7.448 70.8239 7.56933 70.4039 7.812C69.9932 8.04533 69.6665 8.38133 69.4239 8.82C69.1905 9.25867 69.0739 9.758 69.0739 10.318C69.0739 10.878 69.1905 11.3773 69.4239 11.816C69.6665 12.2547 69.9932 12.5953 70.4039 12.838C70.8239 13.0713 71.2952 13.188 71.8179 13.188ZM81.3792 6.58C82.0699 6.58 82.6952 6.73867 83.2552 7.056C83.8152 7.364 84.2539 7.80267 84.5712 8.372C84.8886 8.94133 85.0472 9.59 85.0472 10.318C85.0472 11.0553 84.8886 11.7087 84.5712 12.278C84.2539 12.8473 83.8152 13.2907 83.2552 13.608C82.7046 13.916 82.0792 14.07 81.3792 14.07C80.7819 14.07 80.2406 13.9487 79.7552 13.706C79.2792 13.454 78.8872 13.09 78.5792 12.614V16.716H77.5852V6.636H78.5372V8.092C78.8359 7.60667 79.2279 7.23333 79.7132 6.972C80.2079 6.71067 80.7632 6.58 81.3792 6.58ZM81.3092 13.188C81.8226 13.188 82.2892 13.0713 82.7092 12.838C83.1292 12.5953 83.4559 12.2547 83.6892 11.816C83.9319 11.3773 84.0532 10.878 84.0532 10.318C84.0532 9.758 83.9319 9.26333 83.6892 8.834C83.4559 8.39533 83.1292 8.05467 82.7092 7.812C82.2892 7.56933 81.8226 7.448 81.3092 7.448C80.7866 7.448 80.3152 7.56933 79.8952 7.812C79.4846 8.05467 79.1579 8.39533 78.9152 8.834C78.6819 9.26333 78.5652 9.758 78.5652 10.318C78.5652 10.878 78.6819 11.3773 78.9152 11.816C79.1579 12.2547 79.4846 12.5953 79.8952 12.838C80.3152 13.0713 80.7866 13.188 81.3092 13.188Z" fill="#20213F"/>
<g clip-path="url(#clip0)">
<path d="M15.7811 5.04945L14.6396 4.30351L13.0697 3.28262L8.00235 0L0 5.1929V13.8119L0.218888 13.9553L1.3604 14.6965L2.93027 15.715L8.00235 19L16.0047 13.9792V5.1929L15.7811 5.04945ZM1.57929 6.07034L8.00235 1.91267L11.3563 4.08834L1.57929 8.57833V6.07034ZM1.57929 10.3189L12.9238 5.09966L14.0653 5.84082L1.59106 11.5788L1.57929 10.3189ZM14.4207 13.0946L8.00235 17.1088L4.64843 14.926L14.4207 10.4288V13.0946ZM14.4207 8.68592L3.0762 13.9075L1.93469 13.1664L14.4207 7.4116V8.68592Z" fill="#321FBE"/>
</g>
<defs>
<clipPath id="clip0">
<rect width="16" height="19" fill="white"/>
</clipPath>
</defs>
</svg>
